<?xml version="1.0" encoding="utf-8"?><svg xmlns="http://www.w3.org/2000/svg" xmlns:xlink="http://www.w3.org/1999/xlink" width="1547" height="751" preserveAspectRatio="xMidYMid" viewBox="0 0 1547 751" style="z-index:1;margin-right:-2px;display:block;background-repeat-y:initial;background-repeat-x:initial;background-color:rgb(241, 242, 243);animation-play-state:paused" ><g transform="translate(773.5,375.5) scale(1,1) translate(-773.5,-375.5)" style="transform:matrix(1, 0, 0, 1, 0, 0);animation-play-state:paused" ><defs style="animation-play-state:paused" ><linearGradient id="lg-0" x1="0" x2="1" y1="0" y2="0" style="animation-play-state:paused" ><stop stop-color="#0e0e0e" offset="0" style="animation-play-state:paused" ></stop>

  
<stop stop-color="#292929" offset="1" style="animation-play-state:paused" ></stop></linearGradient></defs>


<path d="M 0 -14.3629 C 349.2 14.3629 1197.8 -43.0886 1547 -14.3629 L 1547 63.6097 C 1971.3 34.8839 -424.3 92.3354 0 63.6097 Z" fill="url(#lg-0)" stroke="none" style="animation-play-state:paused" ></path>
<defs style="animation-play-state:paused" ><linearGradient id="lg-1" x1="0" x2="1" y1="0" y2="0" style="animation-play-state:paused" ><stop stop-color="#6b656d" offset="0" style="animation-play-state:paused" ></stop>

  
<stop stop-color="#292929" offset="1" style="animation-play-state:paused" ></stop></linearGradient></defs>


<path d="M 0 24.6234 C 423.202 53.3492 1123.8 -4.10234 1547 24.6234 L 1547 102.596 C 1897.3 73.8702 -350.298 131.322 0 102.596 Z" fill="url(#lg-1)" stroke="none" style="animation-play-state:paused" ></path>
<defs style="animation-play-state:paused" ><linearGradient id="lg-2" x1="0" x2="1" y1="0" y2="0" style="animation-play-state:paused" ><stop stop-color="#6b656d" offset="0" style="animation-play-state:paused" ></stop>

  
<stop stop-color="#490050" offset="1" style="animation-play-state:paused" ></stop></linearGradient></defs>


<path d="M 0 63.6097 C 354.044 92.3354 1192.96 34.8839 1547 63.6097 L 1547 141.582 C 1966.46 112.857 -419.456 170.308 0 141.582 Z" fill="url(#lg-2)" stroke="none" style="animation-play-state:paused" ></path>
<defs style="animation-play-state:paused" ><linearGradient id="lg-3" x1="0" x2="1" y1="0" y2="0" style="animation-play-state:paused" ><stop stop-color="#39013c" offset="0" style="animation-play-state:paused" ></stop>

  
<stop stop-color="#490050" offset="1" style="animation-play-state:paused" ></stop></linearGradient></defs>


<path d="M 0 102.596 C 412.282 131.322 1134.72 73.8702 1547 102.596 L 1547 180.569 C 1908.22 151.843 -361.218 209.294 0 180.569 Z" fill="url(#lg-3)" stroke="none" style="animation-play-state:paused" ></path>
<defs style="animation-play-state:paused" ><linearGradient id="lg-4" x1="0" x2="1" y1="0" y2="0" style="animation-play-state:paused" ><stop stop-color="#39013c" offset="0" style="animation-play-state:paused" ></stop>

  
<stop stop-color="#0e0e0e" offset="1" style="animation-play-state:paused" ></stop></linearGradient></defs>


<path d="M 0 141.582 C 372.396 170.308 1174.6 112.857 1547 141.582 L 1547 219.555 C 1948.1 190.829 -401.104 248.281 0 219.555 Z" fill="url(#lg-4)" stroke="none" style="animation-play-state:paused" ></path>
<defs style="animation-play-state:paused" ><linearGradient id="lg-5" x1="0" x2="1" y1="0" y2="0" style="animation-play-state:paused" ><stop stop-color="#292929" offset="0" style="animation-play-state:paused" ></stop>

  
<stop stop-color="#0e0e0e" offset="1" style="animation-play-state:paused" ></stop></linearGradient></defs>


<path d="M 0 180.569 C 386.75 209.294 1160.25 151.843 1547 180.569 L 1547 258.541 C 1933.75 229.815 -386.75 287.267 0 258.541 Z" fill="url(#lg-5)" stroke="none" style="animation-play-state:paused" ></path>
<defs style="animation-play-state:paused" ><linearGradient id="lg-6" x1="0" x2="1" y1="0" y2="0" style="animation-play-state:paused" ><stop stop-color="#292929" offset="0" style="animation-play-state:paused" ></stop>

  
<stop stop-color="#6b656d" offset="1" style="animation-play-state:paused" ></stop></linearGradient></defs>


<path d="M 0 219.555 C 401.104 248.281 1145.9 190.829 1547 219.555 L 1547 297.527 C 1919.4 268.802 -372.396 326.253 0 297.527 Z" fill="url(#lg-6)" stroke="none" style="animation-play-state:paused" ></path>
<defs style="animation-play-state:paused" ><linearGradient id="lg-7" x1="0" x2="1" y1="0" y2="0" style="animation-play-state:paused" ><stop stop-color="#490050" offset="0" style="animation-play-state:paused" ></stop>

  
<stop stop-color="#6b656d" offset="1" style="animation-play-state:paused" ></stop></linearGradient></defs>


<path d="M 0 258.541 C 361.218 287.267 1185.78 229.815 1547 258.541 L 1547 336.514 C 1959.28 307.788 -412.282 365.239 0 336.514 Z" fill="url(#lg-7)" stroke="none" style="animation-play-state:paused" ></path>
<defs style="animation-play-state:paused" ><linearGradient id="lg-8" x1="0" x2="1" y1="0" y2="0" style="animation-play-state:paused" ><stop stop-color="#490050" offset="0" style="animation-play-state:paused" ></stop>

  
<stop stop-color="#39013c" offset="1" style="animation-play-state:paused" ></stop></linearGradient></defs>


<path d="M 0 297.527 C 419.456 326.253 1127.54 268.802 1547 297.527 L 1547 375.5 C 1901.04 346.774 -354.044 404.226 0 375.5 Z" fill="url(#lg-8)" stroke="none" style="animation-play-state:paused" ></path>
<defs style="animation-play-state:paused" ><linearGradient id="lg-9" x1="0" x2="1" y1="0" y2="0" style="animation-play-state:paused" ><stop stop-color="#0e0e0e" offset="0" style="animation-play-state:paused" ></stop>

  
<stop stop-color="#39013c" offset="1" style="animation-play-state:paused" ></stop></linearGradient></defs>


<path d="M 0 336.514 C 350.298 365.239 1196.7 307.788 1547 336.514 L 1547 414.486 C 1970.2 385.761 -423.202 443.212 0 414.486 Z" fill="url(#lg-9)" stroke="none" style="animation-play-state:paused" ></path>
<defs style="animation-play-state:paused" ><linearGradient id="lg-10" x1="0" x2="1" y1="0" y2="0" style="animation-play-state:paused" ><stop stop-color="#0e0e0e" offset="0" style="animation-play-state:paused" ></stop>

  
<stop stop-color="#292929" offset="1" style="animation-play-state:paused" ></stop></linearGradient></defs>


<path d="M 0 375.5 C 424.3 404.226 1122.7 346.774 1547 375.5 L 1547 453.473 C 1896.2 424.747 -349.2 482.198 0 453.473 Z" fill="url(#lg-10)" stroke="none" style="animation-play-state:paused" ></path>
<defs style="animation-play-state:paused" ><linearGradient id="lg-11" x1="0" x2="1" y1="0" y2="0" style="animation-play-state:paused" ><stop stop-color="#6b656d" offset="0" style="animation-play-state:paused" ></stop>

  
<stop stop-color="#292929" offset="1" style="animation-play-state:paused" ></stop></linearGradient></defs>


<path d="M 0 414.486 C 350.298 443.212 1196.7 385.761 1547 414.486 L 1547 492.459 C 1970.2 463.733 -423.202 521.185 0 492.459 Z" fill="url(#lg-11)" stroke="none" style="animation-play-state:paused" ></path>
<defs style="animation-play-state:paused" ><linearGradient id="lg-12" x1="0" x2="1" y1="0" y2="0" style="animation-play-state:paused" ><stop stop-color="#6b656d" offset="0" style="animation-play-state:paused" ></stop>

  
<stop stop-color="#490050" offset="1" style="animation-play-state:paused" ></stop></linearGradient></defs>


<path d="M 0 453.473 C 419.456 482.198 1127.54 424.747 1547 453.473 L 1547 531.445 C 1901.04 502.719 -354.044 560.171 0 531.445 Z" fill="url(#lg-12)" stroke="none" style="animation-play-state:paused" ></path>
<defs style="animation-play-state:paused" ><linearGradient id="lg-13" x1="0" x2="1" y1="0" y2="0" style="animation-play-state:paused" ><stop stop-color="#39013c" offset="0" style="animation-play-state:paused" ></stop>

  
<stop stop-color="#490050" offset="1" style="animation-play-state:paused" ></stop></linearGradient></defs>


<path d="M 0 492.459 C 361.218 521.185 1185.78 463.733 1547 492.459 L 1547 570.431 C 1959.28 541.706 -412.282 599.157 0 570.431 Z" fill="url(#lg-13)" stroke="none" style="animation-play-state:paused" ></path>
<defs style="animation-play-state:paused" ><linearGradient id="lg-14" x1="0" x2="1" y1="0" y2="0" style="animation-play-state:paused" ><stop stop-color="#39013c" offset="0" style="animation-play-state:paused" ></stop>

  
<stop stop-color="#0e0e0e" offset="1" style="animation-play-state:paused" ></stop></linearGradient></defs>


<path d="M 0 531.445 C 401.104 560.171 1145.9 502.719 1547 531.445 L 1547 609.418 C 1919.4 580.692 -372.396 638.143 0 609.418 Z" fill="url(#lg-14)" stroke="none" style="animation-play-state:paused" ></path>
<defs style="animation-play-state:paused" ><linearGradient id="lg-15" x1="0" x2="1" y1="0" y2="0" style="animation-play-state:paused" ><stop stop-color="#292929" offset="0" style="animation-play-state:paused" ></stop>

  
<stop stop-color="#0e0e0e" offset="1" style="animation-play-state:paused" ></stop></linearGradient></defs>


<path d="M 0 570.431 C 386.75 599.157 1160.25 541.706 1547 570.431 L 1547 648.404 C 1933.75 619.678 -386.75 677.13 0 648.404 Z" fill="url(#lg-15)" stroke="none" style="animation-play-state:paused" ></path>
<defs style="animation-play-state:paused" ><linearGradient id="lg-16" x1="0" x2="1" y1="0" y2="0" style="animation-play-state:paused" ><stop stop-color="#292929" offset="0" style="animation-play-state:paused" ></stop>

  
<stop stop-color="#6b656d" offset="1" style="animation-play-state:paused" ></stop></linearGradient></defs>


<path d="M 0 609.418 C 372.396 638.143 1174.6 580.692 1547 609.418 L 1547 687.39 C 1948.1 658.665 -401.104 716.116 0 687.39 Z" fill="url(#lg-16)" stroke="none" style="animation-play-state:paused" ></path>
<defs style="animation-play-state:paused" ><linearGradient id="lg-17" x1="0" x2="1" y1="0" y2="0" style="animation-play-state:paused" ><stop stop-color="#490050" offset="0" style="animation-play-state:paused" ></stop>

  
<stop stop-color="#6b656d" offset="1" style="animation-play-state:paused" ></stop></linearGradient></defs>


<path d="M 0 648.404 C 412.282 677.13 1134.72 619.678 1547 648.404 L 1547 726.377 C 1908.22 697.651 -361.218 755.102 0 726.377 Z" fill="url(#lg-17)" stroke="none" style="animation-play-state:paused" ></path>
<defs style="animation-play-state:paused" ><linearGradient id="lg-18" x1="0" x2="1" y1="0" y2="0" style="animation-play-state:paused" ><stop stop-color="#490050" offset="0" style="animation-play-state:paused" ></stop>

  
<stop stop-color="#39013c" offset="1" style="animation-play-state:paused" ></stop></linearGradient></defs>


<path d="M 0 687.39 C 354.044 716.116 1192.96 658.665 1547 687.39 L 1547 765.363 C 1966.46 736.637 -419.456 794.089 0 765.363 Z" fill="url(#lg-18)" stroke="none" style="animation-play-state:paused" ></path>
<defs style="animation-play-state:paused" ><linearGradient id="lg-19" x1="0" x2="1" y1="0" y2="0" style="animation-play-state:paused" ><stop stop-color="#0e0e0e" offset="0" style="animation-play-state:paused" ></stop>

  
<stop stop-color="#39013c" offset="1" style="animation-play-state:paused" ></stop></linearGradient></defs>


<path d="M 0 726.377 C 423.202 755.102 1123.8 697.651 1547 726.377 L 1547 804.349 C 1897.3 775.623 -350.298 833.075 0 804.349 Z" fill="url(#lg-19)" stroke="none" style="animation-play-state:paused" ></path></g></svg>