<?xml version="1.0" encoding="utf-8"?><svg xmlns="http://www.w3.org/2000/svg" xmlns:xlink="http://www.w3.org/1999/xlink" width="325" height="325" preserveAspectRatio="xMidYMid" viewBox="0 0 325 325" style="display:block;background-repeat-y:initial;background-repeat-x:initial;background-color:rgb(241, 242, 243);animation-play-state:paused" ><g transform="scale(1.27)" style="transform:matrix(1.27, 0, 0, 1.27, 0, 0);animation-play-state:paused" ><path d="M -256 12.240000000000002 C -192 12.240000000000002 -192 2 -128 2 C -64 2 -64 12.240000000000002 2 12.240000000000002 C 64 12.240000000000002 64 2 128 2 C 192 2 192 12.240000000000002 256 12.240000000000002 L 384 384 L -384 384 L -384 12.240000000000002 Z" fill="#170018" stroke="#170018" stroke-width="1" transform="matrix(1,0,0,1,256,-51.20000076293945)" style="transform:matrix(1, 0, 0, 1, 256, -51.2);animation-play-state:paused" ></path>
<path d="M -256 12.240000000000002 C -192 12.240000000000002 -192 2 -128 2 C -64 2 -64 12.240000000000002 2 12.240000000000002 C 64 12.240000000000002 64 2 128 2 C 192 2 192 12.240000000000002 256 12.240000000000002 L 384 384 L -384 384 L -384 12.240000000000002 Z" fill="#300033" stroke="#300033" stroke-width="1" transform="matrix(1,0,0,1,16.51072883605957,0)" style="transform:matrix(1, 0, 0, 1, 16.5107, 0);animation-play-state:paused" ></path>
<path d="M -256 12.240000000000002 C -192 12.240000000000002 -192 2 -128 2 C -64 2 -64 12.240000000000002 2 12.240000000000002 C 64 12.240000000000002 64 2 128 2 C 192 2 192 12.240000000000002 256 12.240000000000002 L 384 384 L -384 384 L -384 12.240000000000002 Z" fill="#865587" stroke="#865587" stroke-width="1" transform="matrix(1,0,0,1,176.93057250976562,51.20000076293945)" style="transform:matrix(1, 0, 0, 1, 176.931, 51.2);animation-play-state:paused" ></path>
<path d="M -256 12.240000000000002 C -192 12.240000000000002 -192 2 -128 2 C -64 2 -64 12.240000000000002 2 12.240000000000002 C 64 12.240000000000002 64 2 128 2 C 192 2 192 12.240000000000002 256 12.240000000000002 L 384 384 L -384 384 L -384 12.240000000000002 Z" fill="#fab0fa" stroke="#fab0fa" stroke-width="1" transform="matrix(1,0,0,1,176.9305877685547,102.4000015258789)" style="transform:matrix(1, 0, 0, 1, 176.931, 102.4);animation-play-state:paused" ></path>
<path d="M -256 12.240000000000002 C -192 12.240000000000002 -192 2 -128 2 C -64 2 -64 12.240000000000002 2 12.240000000000002 C 64 12.240000000000002 64 2 128 2 C 192 2 192 12.240000000000002 256 12.240000000000002 L 384 384 L -384 384 L -384 12.240000000000002 Z" fill="#500050" stroke="#500050" stroke-width="1" transform="matrix(1,0,0,1,16.510726928710938,153.60000610351562)" style="transform:matrix(1, 0, 0, 1, 16.5107, 153.6);animation-play-state:paused" ></path>
<path d="M -256 12.240000000000002 C -192 12.240000000000002 -192 2 -128 2 C -64 2 -64 12.240000000000002 2 12.240000000000002 C 64 12.240000000000002 64 2 128 2 C 192 2 192 12.240000000000002 256 12.240000000000002 L 384 384 L -384 384 L -384 12.240000000000002 Z" fill="#170018" stroke="#170018" stroke-width="1" transform="matrix(1,0,0,1,0,204.8000030517578)" style="transform:matrix(1, 0, 0, 1, 0, 204.8);animation-play-state:paused" ></path></g></svg>