<?xml version="1.0" encoding="utf-8"?><svg xmlns="http://www.w3.org/2000/svg" xmlns:xlink="http://www.w3.org/1999/xlink" width="465" height="465" preserveAspectRatio="xMidYMid" viewBox="0 0 465 465" style="display:block;background-repeat-y:initial;background-repeat-x:initial;background-color:rgb(241, 242, 243);animation-play-state:paused" ><g transform="scale(1.82)" style="transform:matrix(1.82, 0, 0, 1.82, 0, 0);animation-play-state:paused" ><path d="M -256 14.8 C -192 14.8 -192 2 -128 2 C -64 2 -64 14.8 2 14.8 C 64 14.8 64 2 128 2 C 192 2 192 14.8 256 14.8 L 384 384 L -384 384 L -384 14.8 Z" fill="#170018" stroke="#170018" stroke-width="1" transform="matrix(1,0,0,1,256,-64)" style="transform:matrix(1, 0, 0, 1, 256, -64);animation-play-state:paused" ></path>
<path d="M -256 14.8 C -192 14.8 -192 2 -128 2 C -64 2 -64 14.8 2 14.8 C 64 14.8 64 2 128 2 C 192 2 192 14.8 256 14.8 L 384 384 L -384 384 L -384 14.8 Z" fill="#865587" stroke="#865587" stroke-width="1" transform="matrix(1,0,0,1,27.108484268188477,0)" style="transform:matrix(1, 0, 0, 1, 27.1085, 0);animation-play-state:paused" ></path>
<path d="M -256 14.8 C -192 14.8 -192 2 -128 2 C -64 2 -64 14.8 2 14.8 C 64 14.8 64 2 128 2 C 192 2 192 14.8 256 14.8 L 384 384 L -384 384 L -384 14.8 Z" fill="#fab0fa" stroke="#fab0fa" stroke-width="1" transform="matrix(1,0,0,1,128,64)" style="transform:matrix(1, 0, 0, 1, 128, 64);animation-play-state:paused" ></path>
<path d="M -256 14.8 C -192 14.8 -192 2 -128 2 C -64 2 -64 14.8 2 14.8 C 64 14.8 64 2 128 2 C 192 2 192 14.8 256 14.8 L 384 384 L -384 384 L -384 14.8 Z" fill="#500050" stroke="#500050" stroke-width="1" transform="matrix(1,0,0,1,228.89151000976562,128)" style="transform:matrix(1, 0, 0, 1, 228.892, 128);animation-play-state:paused" ></path>
<path d="M -256 14.8 C -192 14.8 -192 2 -128 2 C -64 2 -64 14.8 2 14.8 C 64 14.8 64 2 128 2 C 192 2 192 14.8 256 14.8 L 384 384 L -384 384 L -384 14.8 Z" fill="#170018" stroke="#170018" stroke-width="1" transform="matrix(1,0,0,1,256,192)" style="transform:matrix(1, 0, 0, 1, 256, 192);animation-play-state:paused" ></path></g></svg>